<svg xmlns="http://www.w3.org/2000/svg" viewBox="0 0 24 24" fill="#0052B4" width="50px" height="50px" transform="scale(-1, 1)"><path d="M18.6,8.5c-0.4-0.4-1-0.4-1.4,0l-2.1,2.1c-0.4,0.4-0.4,1,0,1.4c0.2,0.2,0.5,0.3,0.7,0.3s0.5-0.1,0.7-0.3l2.1-2.1C19,9.5,19,8.9,18.6,8.5z M16.5,13.3c-0.4-0.4-1-0.4-1.4,0c-0.4,0.4-0.4,1,0,1.4c0.2,0.2,0.5,0.3,0.7,0.3s0.5-0.1,0.7-0.3C16.9,14.3,16.9,13.7,16.5,13.3z M12,16.5c-0.4-0.4-1-0.4-1.4,0c-0.4,0.4-0.4,1,0,1.4c0.2,0.2,0.5,0.3,0.7,0.3s0.5-0.1,0.7-0.3C12.4,17.5,12.4,16.9,12,16.5z M21.5,11.5c-1.2,0-2.3,0.5-3.1,1.3L12,19.2V19c0-3.9-3.1-7-7-7H3c-0.6,0-1,0.4-1,1v5c0,0.6,0.4,1,1,1h2v3c0,0.6,0.4,1,1,1h5c0.6,0,1-0.4,1-1v-3.5l1.8-1.8c0.8-0.8,1.8-1.2,2.9-1.2c1.9,0,3.5,1.6,3.5,3.5c0,0.6,0.4,1,1,1s1-0.4,1-1C24,13.6,22.9,11.5,21.5,11.5z"/></svg>